<?xml version="1.0" encoding="UTF-8"?>
<svg width="1410" height="372" viewBox="0 0 1410 372" fill="#DD5702" xmlns="http://www.w3.org/2000/svg">
<g clip-path="url(#clip0)">
<path fill-rule="evenodd" clip-rule="evenodd" d="M1366.99 52.2116C1382.24 52.1158 1392.57 57.5159 1399.22 70.0096C1408.43 87.2963 1413.2 106.149 1407.6 125.417C1395.74 166.189 1382.82 206.642 1370.25 247.191C1369.48 249.651 1368.01 252.015 1366.44 254.092C1365.1 255.85 1362.8 256.713 1360.82 255.434C1359.82 254.795 1359.25 252.846 1359.25 251.504C1359.41 244.602 1360.94 244.027 1360.62 237.157C1358.8 198.366 1328.74 175.743 1290.4 183.859C1272.62 187.63 1252.98 196.193 1240.13 208.527C1219.08 228.69 1208.43 247.286 1196.79 273.808C1195.51 276.715 1194.75 279.847 1193.24 282.595C1191.81 285.183 1189.09 285.694 1186.3 284.895C1183.07 283.969 1182.6 281.221 1183.04 278.569C1183.68 274.926 1184.71 271.347 1185.82 267.832C1206.96 201.593 1228.39 135.45 1249.05 69.083C1252.09 59.3372 1256.21 55.4709 1266.51 55.2153C1291.48 54.5123 1358.48 52.2436 1366.99 52.2116Z" fill="white"/>
<path d="M633.99 286.653L654.297 169.96C656.28 158.648 666.897 149.509 678.121 149.509H698.62C709.845 149.509 717.328 158.648 715.377 169.96L695.07 286.653H674.764L694.463 173.954C694.847 171.781 693.28 169.992 691.105 169.992H678.505C676.331 169.992 674.38 171.781 673.964 173.954L654.265 286.653H633.99Z" fill="white"/>
<path d="M477.803 169.96H457.304L437.029 286.653H416.722L437.029 169.96H416.722L420.272 149.509H481.353L477.803 169.96Z" fill="white"/>
<path d="M598.365 149.509H618.864C630.088 149.509 637.572 158.648 635.621 169.96L615.346 286.653H595.071L605.113 228.306H584.614L574.572 286.653H554.297L574.572 169.96C576.491 158.648 587.14 149.509 598.365 149.509ZM614.706 173.922C615.09 171.749 613.523 169.96 611.349 169.96H598.749C596.574 169.96 594.623 171.749 594.208 173.922L588.292 207.856H608.79L614.706 173.922Z" fill="white"/>
<path d="M537.892 149.509H526.028H517.169C506.904 149.509 495.935 156.827 494.048 167.116L492.066 178.587L473.294 286.621H493.569L503.61 228.274H507.736L517.201 286.621H538.468L529.194 227.699C538.468 225.526 546.335 217.378 548.093 207.856L554.585 169.96C556.6 158.648 549.117 149.509 537.892 149.509ZM533.735 173.922L528.426 203.894C528.042 206.067 526.06 207.856 523.885 207.856H507.352L512.277 179.673L513.268 173.922C513.652 171.749 515.634 169.96 517.809 169.96H530.409C532.584 169.96 534.15 171.749 533.735 173.922Z" fill="white"/>
<path d="M748.86 179.322C749.915 174.561 754.456 170.663 759.029 170.663L800.922 170.79L805.719 149.509H760.052C746.621 149.509 733.318 161.013 730.248 175.168L723.916 204.277C722.413 211.243 723.628 217.858 727.306 222.427C730.503 226.421 735.396 228.658 741.025 228.722L765.745 228.881C768.271 228.913 771.693 229.233 773.164 231.118C774.699 233.067 774.027 236.327 773.42 238.979L769.39 256.904C768.303 261.665 763.762 265.564 759.221 265.564L714.386 265.436L709.685 286.717H758.134C771.245 286.717 784.517 275.182 787.747 261.026L794.366 231.949C795.933 225.015 794.75 218.401 791.136 213.831C787.97 209.837 783.078 207.601 777.417 207.569L767.504 207.505L760.468 207.409L758.645 207.441L752.665 207.409C750.107 207.377 746.813 206.929 745.342 205.044C743.807 203.095 744.351 199.964 744.926 197.312L748.86 179.322Z" fill="white"/>
<path d="M214.165 333.688V345.319H235.336V351.646H214.165V364.395H236.679V371.585H205.595V326.467H236.487V333.656H214.165V333.688Z" fill="white"/>
<path d="M287.878 326.467L274.319 348.323L288.773 371.585H278.732L272.24 360.753C271.249 359.091 270.289 357.397 269.394 355.672L268.466 353.883L267.507 352.125H267.379L266.42 353.915C265.268 356.087 263.957 358.356 262.518 360.753L255.994 371.585H245.665L260.472 348.323L246.72 326.467H256.954L262.966 336.5C263.925 338.098 264.821 339.663 265.652 341.197L266.484 342.795L267.315 344.392H267.443C267.827 343.689 268.083 343.146 268.274 342.795L269.106 341.229C269.809 339.855 270.705 338.289 271.76 336.532L277.772 326.467H287.878Z" fill="white"/>
<path d="M327.18 355.512H335.783V357.078C335.783 363.341 334.632 367.431 332.329 369.252C330.027 371.105 324.974 372 317.107 372C308.185 372 302.716 370.53 300.669 367.623C298.623 364.715 297.599 356.918 297.599 344.297C297.599 336.851 298.975 331.963 301.757 329.598C304.539 327.266 310.359 326.083 319.186 326.083C325.613 326.083 329.931 327.042 332.073 328.991C334.248 330.908 335.303 334.743 335.303 340.462L335.335 341.485H326.733V340.334C326.733 337.395 326.189 335.477 325.07 334.679C323.95 333.848 321.424 333.432 317.459 333.432C312.15 333.432 308.952 334.072 307.897 335.382C306.842 336.692 306.298 340.526 306.298 346.949C306.298 355.576 306.778 360.689 307.737 362.286C308.696 363.884 311.798 364.651 317.043 364.651C321.296 364.651 324.078 364.203 325.326 363.341C326.605 362.446 327.212 360.529 327.212 357.525L327.18 355.512Z" fill="white"/>
<path d="M355.61 333.688V345.319H376.78V351.646H355.61V364.395H378.123V371.585H347.04V326.467H377.932V333.656H355.61V333.688Z" fill="white"/>
<path d="M399.869 326.467V363.916H421.04V371.585H391.299V326.467H399.869Z" fill="white"/>
<path d="M439.843 333.688V345.319H461.014V351.646H439.843V364.395H462.357V371.585H431.273V326.467H462.165V333.656H439.843V333.688Z" fill="white"/>
<path d="M517.425 326.467V371.585H502.907L490.019 346.821C489.379 345.575 488.388 343.434 487.013 340.334L485.542 337.107L484.103 333.88H483.783L483.911 336.851L484.007 339.791L484.071 345.703V371.585H475.5V326.467H490.019L501.755 349.345C502.779 351.358 503.994 353.819 505.369 356.726L507.096 360.401L508.823 364.108H509.111L509.015 361.2L508.919 358.292L508.855 352.477V326.499H517.425V326.467Z" fill="white"/>
<path d="M560.022 355.512H568.624V357.078C568.624 363.341 567.473 367.431 565.17 369.252C562.868 371.105 557.815 372 549.948 372C541.026 372 535.558 370.53 533.511 367.623C531.464 364.715 530.441 356.918 530.441 344.297C530.441 336.851 531.816 331.963 534.598 329.598C537.38 327.266 543.201 326.083 552.027 326.083C558.455 326.083 562.772 327.042 564.947 328.991C567.121 330.908 568.176 334.743 568.176 340.462L568.208 341.485H559.638V340.334C559.638 337.395 559.094 335.477 557.975 334.679C556.856 333.848 554.329 333.432 550.364 333.432C545.055 333.432 541.858 334.072 540.802 335.382C539.747 336.692 539.203 340.526 539.203 346.949C539.203 355.576 539.683 360.689 540.642 362.286C541.602 363.884 544.704 364.651 549.948 364.651C554.202 364.651 556.984 364.203 558.231 363.341C559.51 362.446 560.118 360.529 560.118 357.525L560.022 355.512Z" fill="white"/>
<path d="M589.347 326.467V371.585H580.776V326.467H589.347Z" fill="white"/>
<path d="M631.464 362.925H611.988L609.174 371.585H600.124L615.154 326.467H628.01L643.264 371.585H634.374L631.464 362.925ZM629.481 356.631L621.678 333.145L614.003 356.631H629.481Z" fill="white"/>
<path d="M685.317 333.688V345.319H706.487V351.646H685.317V364.395H707.83V371.585H676.746V326.467H707.638V333.656H685.317V333.688Z" fill="white"/>
<path d="M762.899 326.467V371.585H748.38L735.46 346.821C734.821 345.575 733.829 343.434 732.454 340.334L730.983 337.107L729.576 333.88H729.256L729.384 336.851L729.48 339.791L729.544 345.703V371.585H720.974V326.467H735.524L747.261 349.345C748.284 351.358 749.499 353.819 750.874 356.726L752.601 360.401L754.328 364.108H754.616L754.52 361.2L754.424 358.292L754.36 352.477V326.499H762.899V326.467Z" fill="white"/>
<path d="M834.852 339.631H826.473C826.441 339.216 826.409 338.896 826.409 338.705C826.218 336.18 825.642 334.583 824.715 333.912C823.787 333.273 821.612 332.953 818.159 332.953C814.097 332.953 811.443 333.337 810.196 334.072C808.949 334.806 808.341 336.404 808.341 338.801C808.341 341.644 808.853 343.338 809.876 343.913C810.899 344.488 814.257 344.936 819.918 345.223C826.633 345.607 830.982 346.565 832.965 348.099C834.948 349.633 835.939 352.86 835.939 357.717C835.939 363.724 834.788 367.59 832.453 369.348C830.151 371.105 825.034 371.968 817.135 371.968C810.036 371.968 805.335 371.105 803.001 369.38C800.666 367.654 799.515 364.172 799.515 358.931L799.483 357.27H807.829L807.861 358.228C807.861 361.392 808.405 363.309 809.524 364.012C810.612 364.715 813.65 365.066 818.543 365.066C822.38 365.066 824.842 364.651 825.898 363.852C826.953 363.053 827.497 361.168 827.497 358.196C827.497 356.023 827.081 354.554 826.282 353.851C825.482 353.148 823.755 352.7 821.069 352.541L816.336 352.253C809.205 351.838 804.632 350.847 802.649 349.281C800.666 347.716 799.675 344.36 799.675 339.184C799.675 333.912 800.858 330.397 803.256 328.671C805.655 326.914 810.42 326.051 817.583 326.051C824.363 326.051 828.936 326.85 831.302 328.448C833.669 330.045 834.852 333.209 834.852 337.874V339.631V339.631Z" fill="white"/>
<path d="M856.342 333.688V345.319H877.512V351.646H856.342V364.395H878.856V371.585H847.772V326.467H878.664V333.656H856.342V333.688Z" fill="white"/>
<path d="M892.031 371.585V326.467H914.289C919.821 326.467 923.627 327.425 925.737 329.342C927.816 331.26 928.871 334.743 928.871 339.759C928.871 344.329 928.36 347.428 927.304 349.122C926.249 350.783 924.106 351.965 920.876 352.604V352.892C925.865 353.212 928.392 356.119 928.392 361.647V371.585H919.821V363.341C919.821 358.676 917.519 356.375 912.946 356.375H900.602V371.585H892.031V371.585ZM900.569 349.185H912.882C915.824 349.185 917.774 348.674 918.734 347.62C919.693 346.565 920.173 344.488 920.173 341.325C920.173 338.098 919.757 336.021 918.926 335.094C918.094 334.167 916.271 333.688 913.489 333.688H900.602V349.185H900.569Z" fill="white"/>
<path d="M971.372 326.467H980.422L965.871 371.585H952.696L938.273 326.467H947.163L955.638 352.029C956.437 354.49 957.621 358.58 959.188 364.331H959.411L960.275 361.264C961.33 357.429 962.226 354.362 962.993 352.061L971.372 326.467Z" fill="white"/>
<path d="M999.513 326.467V371.585H990.943V326.467H999.513Z" fill="white"/>
<path d="M1042.17 355.512H1050.78V357.078C1050.78 363.341 1049.63 367.431 1047.32 369.252C1045.02 371.105 1039.97 372 1032.1 372C1023.18 372 1017.71 370.53 1015.66 367.623C1013.62 364.715 1012.59 356.918 1012.59 344.297C1012.59 336.851 1013.97 331.963 1016.75 329.598C1019.53 327.266 1025.35 326.083 1034.18 326.083C1040.61 326.083 1044.92 327.042 1047.07 328.991C1049.24 330.908 1050.3 334.743 1050.3 340.462L1050.33 341.485H1041.73V340.334C1041.73 337.395 1041.18 335.477 1040.06 334.679C1038.94 333.848 1036.42 333.432 1032.45 333.432C1027.14 333.432 1023.95 334.072 1022.86 335.382C1021.8 336.692 1021.26 340.526 1021.26 346.949C1021.26 355.576 1021.74 360.689 1022.7 362.286C1023.66 363.884 1026.76 364.651 1032 364.651C1036.26 364.651 1039.01 364.203 1040.29 363.341C1041.57 362.446 1042.17 360.529 1042.17 357.525V355.512Z" fill="white"/>
<path d="M1071.5 326.467V371.585H1062.93V326.467H1071.5Z" fill="white"/>
<path d="M1105.05 326.083C1113.26 326.083 1118.54 327.457 1120.91 330.173C1123.27 332.889 1124.46 338.992 1124.46 348.451C1124.46 358.771 1123.27 365.29 1120.91 367.974C1118.54 370.658 1112.78 372 1103.7 372C1095.48 372 1090.21 370.658 1087.78 368.006C1085.38 365.354 1084.16 359.506 1084.16 350.464C1084.16 339.695 1085.35 332.953 1087.71 330.205C1090.05 327.457 1095.84 326.083 1105.05 326.083ZM1104.41 333.401C1098.65 333.401 1095.29 334.135 1094.3 335.605C1093.34 337.075 1092.83 342.188 1092.83 350.943C1092.83 357.429 1093.4 361.328 1094.52 362.638C1095.64 363.948 1099 364.619 1104.57 364.619C1109.87 364.619 1113.07 363.884 1114.13 362.382C1115.18 360.88 1115.73 356.375 1115.73 348.834C1115.73 341.261 1115.21 336.82 1114.22 335.414C1113.23 334.104 1109.94 333.401 1104.41 333.401Z" fill="white"/>
<path d="M1170.51 339.631H1162.13C1162.1 339.216 1162.06 338.896 1162.06 338.705C1161.87 336.18 1161.3 334.583 1160.37 333.912C1159.44 333.273 1157.27 332.953 1153.81 332.953C1149.75 332.953 1147.1 333.337 1145.85 334.072C1144.6 334.806 1144 336.404 1144 338.801C1144 341.644 1144.51 343.338 1145.53 343.913C1146.55 344.488 1149.91 344.936 1155.57 345.223C1162.29 345.607 1166.64 346.565 1168.62 348.099C1170.6 349.633 1171.59 352.86 1171.59 357.717C1171.59 363.724 1170.44 367.59 1168.11 369.348C1165.81 371.105 1160.69 371.968 1152.79 371.968C1145.69 371.968 1140.99 371.105 1138.66 369.38C1136.32 367.654 1135.17 364.172 1135.17 358.931L1135.14 357.27H1143.48L1143.52 358.228C1143.52 361.392 1144.06 363.309 1145.18 364.012C1146.27 364.715 1149.3 365.066 1154.2 365.066C1158.03 365.066 1160.5 364.651 1161.55 363.852C1162.61 363.053 1163.15 361.168 1163.15 358.196C1163.15 356.023 1162.74 354.554 1161.94 353.851C1161.14 353.148 1159.41 352.7 1156.72 352.541L1151.99 352.253C1144.86 351.838 1140.29 350.847 1138.3 349.281C1136.32 347.716 1135.33 344.36 1135.33 339.184C1135.33 333.912 1136.51 330.397 1138.91 328.671C1141.31 326.914 1146.07 326.051 1153.24 326.051C1160.02 326.051 1164.59 326.85 1166.96 328.448C1169.32 330.045 1170.51 333.209 1170.51 337.874V339.631V339.631Z" fill="white"/>
<path fill-rule="evenodd" clip-rule="evenodd" d="M1202.9 -5.9451e-05C1222.7 -0.223732 1233.31 8.851 1231.11 30.3556C1230.44 36.8101 1228.65 42.9132 1226.63 48.8885C1201.46 123.787 1175.94 198.59 1151.03 273.584C1147.87 283.138 1143.61 286.749 1133.25 286.621C1082.63 286.046 1032 286.333 981.381 286.333C978.183 286.333 974.953 286.525 971.787 286.142C968.046 285.726 966.639 284.192 968.11 279.815C971.308 270.261 971.755 267.193 974.442 257.511C976.744 249.172 976.744 240.608 975.945 232.109C973.93 210.444 961.33 195.394 940.416 189.994C910.323 182.229 880.167 188.588 857.174 209.645C835.332 229.68 829.384 249.108 820.014 276.524C818.894 279.847 817.359 285.055 814.321 285.598C809.556 286.461 804.44 287.579 800.25 285.407C795.294 282.85 797.82 277.45 798.971 273.839C807.829 236.358 816.368 198.174 827.465 159.862C830.599 149.03 839.681 148.519 849.467 148.551C933.668 148.806 1029.32 148.71 1113.52 148.647C1119.37 148.647 1125.22 148.327 1131.08 148.039C1138.82 147.688 1140.73 141.841 1140.93 135.929C1141.15 129.666 1135.97 128.548 1130.82 128.484C1127.08 128.42 1123.37 128.452 1119.63 128.452C1024.78 128.452 929.895 128.324 835.044 128.58C821.165 128.612 808.693 125.576 797.692 117.205C793.567 114.041 787.81 110.43 789.921 104.551C791.808 99.2468 798.172 100.908 802.777 100.908C860.851 100.717 918.958 100.621 977.032 100.557C1030.85 100.461 1084.67 100.429 1138.5 100.365C1142.24 100.365 1145.95 100.269 1149.69 100.173C1156.88 99.9817 1158.39 94.4858 1158.71 89.1496C1159.06 83.5578 1155.6 80.3944 1149.78 80.2985C1145.53 80.2346 1141.25 80.2346 1136.99 80.2346C1022.41 80.2346 907.829 80.1707 793.247 80.3305C782.406 80.3305 772.109 79.1162 762.387 74.0037C757.622 71.4794 753.209 68.5078 749.691 64.4816C747.389 61.8615 743.775 59.2094 745.918 54.9596C747.58 51.6684 751.034 51.6045 754.296 51.6364C758.038 51.6364 761.747 51.6364 765.489 51.6364C895.005 51.6045 1024.49 51.5406 1153.97 51.4767C1158.23 51.4767 1162.51 51.4447 1166.77 51.3489C1172.2 51.221 1174.22 47.802 1174.25 43.009C1174.28 37.9285 1171.53 35.1485 1166.38 35.0527C1162.13 34.9568 1157.84 34.9249 1153.59 34.9249C1020.36 34.6373 887.138 34.2858 753.912 34.158C737.315 34.158 722.125 31.1863 709.973 19.0441C706.295 15.3695 701.083 11.3753 703.801 5.52786C706.167 0.447287 710.868 0.511193 715.537 0.511193C797.692 0.415333 1122.99 0.862679 1202.9 -5.9451e-05Z" fill="white"/>
<path fill-rule="evenodd" clip-rule="evenodd" d="M919.373 198.206C887.266 197.759 839.073 226.421 838.434 272.529C838.178 290.998 848.923 301.83 864.177 302.022C884.324 302.278 891.871 277.546 891.743 250.162C891.615 203.446 947.099 198.557 919.373 198.206Z" fill="white"/>
<path fill-rule="evenodd" clip-rule="evenodd" d="M884.612 312.727C916.719 313.174 964.912 284.512 965.551 238.403C965.807 219.934 955.062 209.102 939.808 208.91C919.661 208.623 912.114 233.387 912.242 260.739C912.402 307.486 856.918 312.375 884.612 312.727Z" fill="white"/>
<path fill-rule="evenodd" clip-rule="evenodd" d="M1304.15 198.717C1272.04 198.27 1223.85 226.932 1223.21 273.073C1222.95 291.542 1233.7 302.374 1248.95 302.565C1269.1 302.853 1276.65 278.089 1276.52 250.705C1276.39 203.958 1331.87 199.101 1304.15 198.717Z" fill="white"/>
<path fill-rule="evenodd" clip-rule="evenodd" d="M1267.47 313.014C1299.45 313.462 1347.42 284.927 1348.02 239.011C1348.28 220.637 1337.6 209.869 1322.41 209.645C1302.36 209.358 1294.84 233.994 1294.94 261.25C1295.13 307.806 1239.87 312.631 1267.47 313.014Z" fill="white"/>
<path d="M174.095 149.509L153.821 266.203C151.838 277.514 141.221 286.653 129.996 286.653H109.497C98.2724 286.653 90.7893 277.514 92.74 266.203L113.015 149.509H133.29L113.591 262.209C113.207 264.381 114.774 266.171 116.948 266.171H129.548C131.723 266.171 133.674 264.381 134.089 262.209L153.789 149.509H174.095Z" fill="white"/>
<path d="M300.158 286.653H249.311L273.135 149.541H323.95L320.401 169.991H289.861L283.369 207.888H313.909L310.199 228.306H279.659L273.167 266.203H303.708L300.158 286.653Z" fill="white"/>
<path d="M385.031 149.509H373.167H364.308C354.043 149.509 343.074 156.827 341.187 167.116L339.205 178.587L320.433 286.621H340.74L350.781 228.274H354.938L364.372 286.621H385.639L376.365 227.699C385.639 225.526 393.505 217.378 395.264 207.856L401.756 169.96C403.739 158.648 396.256 149.509 385.031 149.509ZM380.906 173.922L375.597 203.894C375.213 206.067 373.231 207.856 371.056 207.856H354.523L359.448 179.673L360.439 173.922C360.823 171.749 362.805 169.96 364.98 169.96H377.58C379.722 169.96 381.289 171.749 380.906 173.922Z" fill="white"/>
<path d="M235.144 149.509H223.28H214.421C204.156 149.509 193.187 156.827 191.3 167.116L189.318 178.587L170.546 286.621H190.853L200.894 228.274H205.019L226.478 227.667C235.752 225.494 243.618 217.346 245.377 207.824L251.869 169.928C253.852 158.648 246.369 149.509 235.144 149.509ZM231.019 173.922L225.71 203.894C225.326 206.067 223.344 207.856 221.169 207.856H204.636L209.56 179.673L210.552 173.922C210.936 171.749 212.918 169.96 215.093 169.96H227.693C229.835 169.96 231.402 171.749 231.019 173.922Z" fill="white"/>
<path d="M39.1747 179.322C40.23 174.561 44.771 170.663 49.3441 170.663L91.237 170.79L96.0339 149.509H50.3674C36.9361 149.509 23.6327 161.013 20.5627 175.168L14.2308 204.277C12.6958 211.211 13.943 217.826 17.5886 222.395C20.7866 226.389 25.6794 228.626 31.3078 228.69L56.0278 228.849C58.5541 228.881 61.9759 229.201 63.447 231.086C64.982 233.035 64.3104 236.295 63.7028 238.947L59.6734 256.872C58.5861 261.634 54.045 265.532 49.504 265.532L4.70096 265.372L0 286.653H48.4487C61.5602 286.653 74.8316 275.118 78.0615 260.962L84.6812 231.885C86.2482 224.951 85.065 218.337 81.4513 213.768C78.2854 209.773 73.3925 207.537 67.7322 207.505L57.8186 207.441L50.7832 207.345L48.9603 207.377L42.9802 207.345C40.4219 207.313 37.128 206.866 35.6569 204.98C34.1219 203.031 34.6656 199.9 35.2412 197.248L39.1747 179.322Z" fill="white"/>
</g>
<defs>
<clipPath id="clip0">
<rect width="1410" height="372" fill="DD5702"/>
</clipPath>
</defs>
</svg>
